<svg xmlns="http://www.w3.org/2000/svg" viewBox="0 0 33.91 33.91"><title>Trocitos de almendra</title><g id="Capa_2" data-name="Capa 2"><g id="Capa_1-2" data-name="Capa 1"><circle cx="16.96" cy="16.96" r="16.96" style="fill:none"/><path d="M12.42,8.26c-4.51-1.88-7.48,4.06-9,7,0,1.49-1.48,4.46,1.49,4.46C7.17,19,8.66,16,10.83,15.29,12.43,13.42,13.42,10.71,12.42,8.26Z" style="fill:#c59b6d"/><path d="M18.81,20.16c-1.24-1.15-3.47-1.89-4.95-3.38-2.23,3,3,7.43,5.26,4.59A1.08,1.08,0,0,0,18.81,20.16Z" style="fill:#c59b6d"/><path d="M28.39,10.67c-.42-2.06-1.9-8-4.13-5s-5.2,8.18-3,10.41c1.48,2.23,5.2-1.49,7.68-3.4A8.23,8.23,0,0,0,28.39,10.67Z" style="fill:#c59b6d"/><path d="M28,22.3c-3.71-1.81-5.2,1.91-5.94,3.4-2.23,1.48,1.49,1.48,3.72,1.48,1.48-.74,3-1.48,2.65-3.76A1.13,1.13,0,0,0,28,22.3Z" style="fill:#c59b6d"/><path d="M13.44,27.69c-1.07-2-3.3-3.48-4.78-5-1.49,1.49-.75,3-.75,4.46v2.23c2.23,0,4.46.74,5.84-.53A1.62,1.62,0,0,0,13.44,27.69Z" style="fill:#c59b6d"/><path d="M18.93,6.55c-.61-1.66-2.1-1.66-2.84-.92,0,.75,0,2.23-.75,3,1.49.74,3,2.22,3.74-.64Z" style="fill:#c59b6d"/></g></g></svg>